<svg id="Calque_1" data-name="Calque 1" xmlns="http://www.w3.org/2000/svg" xmlns:xlink="http://www.w3.org/1999/xlink" viewBox="0 0 1920 1080"><defs><style>.cls-1,.cls-10,.cls-33,.cls-9{fill:none;}.cls-2{fill:#f4f4f4;}.cls-3{fill:#e8e8e8;}.cls-4{fill:#feb41c;}.cls-5{fill:#5e7c88;}.cls-6{fill:#4b5f6d;}.cls-7{fill:#363f45;}.cls-8{fill:#24221f;}.cls-9{stroke:#feb41c;stroke-width:35.52px;}.cls-10,.cls-33,.cls-9{stroke-miterlimit:10;}.cls-10{stroke:#363f45;stroke-width:4.8px;}.cls-11{fill:#f288b7;}.cls-12{fill:#ed7bb2;}.cls-13{fill:#db6ea2;}.cls-14{fill:#a15d30;}.cls-15{fill:#8f4f24;}.cls-16{fill:#fedac6;}.cls-17{fill:#f5c4b0;}.cls-18{fill:#ebebeb;}.cls-19{fill:#326ce5;}.cls-20,.cls-26{fill:#fff;}.cls-20{stroke:#fff;stroke-width:0.03px;}.cls-21{fill:#252f3e;}.cls-22{fill:#f90;}.cls-23{fill:#3a3a3a;}.cls-24{clip-path:url(#clip-path);}.cls-25{fill:url(#linear-gradient);}.cls-27{fill:#362759;}.cls-28{fill:#503c83;}.cls-29{fill:#e36539;}.cls-30{fill:#000105;}.cls-31{fill:#a084b0;}.cls-32{fill:#e6522c;}.cls-33{stroke:#e8e8e8;stroke-width:1.6px;}.cls-34{fill:#ea4335;}.cls-35{fill:#4285f4;}.cls-36{fill:#34a853;}.cls-37{fill:#fbbc05;}.cls-38{fill:#e01e5a;}.cls-39{fill:#36c5f0;}.cls-40{fill:#2eb67d;}.cls-41{fill:#ecb22e;}.cls-42{fill:#e2e5e7;}.cls-43{fill:#b0b7bd;}.cls-44{fill:#cad1d8;}.cls-45{fill:#f15642;}</style><clipPath id="clip-path"><path class="cls-1" d="M1114,422.45a11.53,11.53,0,0,0,4.49,9.06c3.45,2.81,6.28,8.51,6.45,14.72.18,6.89-.29,14.87-.58,18.93-3.69.52-6.29,1.76-6.29,3.19,0,1.92,4.6,4.13,10.27,4.13s10.26-2.21,10.26-4.13c0-1.43-2.59-2.67-6.29-3.19-.29-4.06-.76-12-.58-18.93.17-6.21,3-11.91,6.45-14.72a11.5,11.5,0,0,0,4.49-9.06c-.06-6.8-6.48-12.27-14.33-12.27S1114,415.65,1114,422.45"/></clipPath><linearGradient id="linear-gradient" x1="434.74" y1="912.75" x2="438.7" y2="912.75" gradientTransform="matrix(-23.3, 0, 0, 23.3, 11302.75, -20829.7)" gradientUnits="userSpaceOnUse"><stop offset="0" stop-color="#4ab4e4"/><stop offset="0.04" stop-color="#43b3e4"/><stop offset="0.11" stop-color="#2fb1e3"/><stop offset="0.13" stop-color="#26b0e3"/><stop offset="0.48" stop-color="#3189c6"/><stop offset="0.81" stop-color="#3a69af"/><stop offset="1" stop-color="#3d5da6"/></linearGradient></defs><title>chaostoolkit-schema</title><rect class="cls-2" width="480" height="1080"/><rect class="cls-3" x="480" width="480" height="1080"/><rect class="cls-3" x="1440" width="480" height="1080"/><rect class="cls-2" x="960" width="480" height="1080"/><path class="cls-4" d="M791.79,478.24a124.39,124.39,0,0,1,29.62,120.88L701.92,564.36Z"/><path class="cls-5" d="M732.15,460.45a107.69,107.69,0,0,1,47.92,29l-78.15,74.89L676.14,459.23A107.77,107.77,0,0,1,732.15,460.45Z"/><path class="cls-6" d="M680,475l21.9,89.35-88.32-25.7A91.91,91.91,0,0,1,680,475Z"/><path class="cls-7" d="M629.19,543.19l72.73,21.17-54.69,52.4A75.65,75.65,0,0,1,629.19,543.19Z"/><path class="cls-8" d="M701.92,564.36l14.17,57.81a59.6,59.6,0,0,1-57.15-16.63Z"/><circle class="cls-4" cx="240" cy="528" r="112"/><circle class="cls-9" cx="1680" cy="540" r="88.8"/><circle class="cls-10" cx="1680" cy="540" r="18.4"/><circle class="cls-7" cx="1680" cy="540" r="5.6"/><line class="cls-10" x1="1680" y1="559.2" x2="1680" y2="676"/><line class="cls-10" x1="1695.13" y1="551.82" x2="1787.17" y2="623.73"/><line class="cls-10" x1="1683.66" y1="521.15" x2="1705.95" y2="406.5"/><line class="cls-10" x1="1665.73" y1="552.85" x2="1578.93" y2="631"/><line class="cls-10" x1="1662.89" y1="531.28" x2="1558.82" y2="478.26"/><circle class="cls-4" cx="1800" cy="634.4" r="18.4"/><circle class="cls-5" cx="1680" cy="696.8" r="21.6"/><circle class="cls-6" cx="1566.4" cy="642.4" r="18.4"/><circle class="cls-7" cx="1538.37" cy="470.12" r="25.32"/><circle class="cls-8" cx="1709.14" cy="395.51" r="13.11"/><polygon class="cls-4" points="1524.8 540 1488.02 503.35 1488.02 521.74 1457.27 521.74 1436.06 521.74 1405.32 521.74 1405.32 503.35 1368.54 540 1405.32 576.65 1405.32 558.26 1436.06 558.26 1457.27 558.26 1488.02 558.26 1488.02 576.65 1524.8 540"/><polygon class="cls-4" points="1038.4 540 1001.62 503.35 1001.62 521.74 970.87 521.74 949.66 521.74 918.92 521.74 918.92 503.35 882.14 540 918.92 576.65 918.92 558.26 949.66 558.26 970.87 558.26 1001.62 558.26 1001.62 576.65 1038.4 540"/><polygon class="cls-4" points="558.4 540 521.62 503.35 521.62 521.74 490.87 521.74 469.66 521.74 438.92 521.74 438.92 503.35 402.14 540 438.92 576.65 438.92 558.26 469.66 558.26 490.87 558.26 521.62 558.26 521.62 576.65 558.4 540"/><path class="cls-7" d="M574.45,224.27q-7.66,0-11.93-5.21t-4.26-15.35q0-10.14,4.26-15.58t11.93-5.44a14.05,14.05,0,0,1,13.82,8.75l-3.92,2.36a11.13,11.13,0,0,0-3.68-5,10,10,0,0,0-6.22-1.87,10.5,10.5,0,0,0-4.64,1,9.68,9.68,0,0,0-3.46,2.8,13.18,13.18,0,0,0-2.16,4.34,19.62,19.62,0,0,0-.75,5.63v6q0,6.24,2.88,9.76a9.88,9.88,0,0,0,8.13,3.53,10.27,10.27,0,0,0,6.45-2,11.44,11.44,0,0,0,3.8-5.27l3.86,2.42a15.47,15.47,0,0,1-5.47,6.68A15,15,0,0,1,574.45,224.27Z"/><path class="cls-7" d="M595.58,181h4.61v17.68h.23a9.75,9.75,0,0,1,3.08-4,8.73,8.73,0,0,1,5.33-1.48,9.36,9.36,0,0,1,7.29,3c1.78,2,2.68,4.78,2.68,8.39v19.06h-4.61v-18.3q0-8-6.74-8a10.42,10.42,0,0,0-2.68.34,8.08,8.08,0,0,0-2.33,1,5.2,5.2,0,0,0-1.64,1.76,5,5,0,0,0-.61,2.52v20.66h-4.61Z"/><path class="cls-7" d="M649.9,223.58a4.51,4.51,0,0,1-3.71-1.38,6.94,6.94,0,0,1-1.42-3.46h-.28a7.69,7.69,0,0,1-3.23,4.15,10,10,0,0,1-5.36,1.38c-3.14,0-5.59-.8-7.34-2.42a8.48,8.48,0,0,1-2.62-6.56,7.49,7.49,0,0,1,3.08-6.45c2.06-1.5,5.25-2.25,9.59-2.25h5.88v-2.94a6.45,6.45,0,0,0-1.73-4.84q-1.72-1.67-5.3-1.67a8,8,0,0,0-4.52,1.21,10,10,0,0,0-3,3.23L627.15,199a10.44,10.44,0,0,1,3.86-4.12,12.15,12.15,0,0,1,6.68-1.7q5.41,0,8.41,2.64a9.29,9.29,0,0,1,3,7.36v16.32h3.4v4.09Zm-13.25-3.22a11.64,11.64,0,0,0,3.17-.41,7.78,7.78,0,0,0,2.48-1.15,5.6,5.6,0,0,0,1.61-1.73,4.15,4.15,0,0,0,.58-2.13V210h-6.11q-4,0-5.79,1.16a3.72,3.72,0,0,0-1.81,3.34v1.21a4,4,0,0,0,1.58,3.4A7,7,0,0,0,636.65,220.36Z"/><path class="cls-7" d="M670.29,224.27a13.36,13.36,0,0,1-5.47-1.09,11.83,11.83,0,0,1-4.23-3.14,14.59,14.59,0,0,1-2.74-4.9,21.42,21.42,0,0,1,0-12.81,14.64,14.64,0,0,1,2.74-4.93,11.83,11.83,0,0,1,4.23-3.14,13.36,13.36,0,0,1,5.47-1.09,13.15,13.15,0,0,1,5.44,1.09A12.13,12.13,0,0,1,680,197.4a14.51,14.51,0,0,1,2.76,4.93,21.42,21.42,0,0,1,0,12.81A14.46,14.46,0,0,1,680,220a12.13,12.13,0,0,1-4.24,3.14A13.15,13.15,0,0,1,670.29,224.27Zm0-4.09a8.37,8.37,0,0,0,6.11-2.3q2.36-2.31,2.36-7v-4.26q0-4.72-2.36-7a9.25,9.25,0,0,0-12.21,0q-2.37,2.31-2.37,7v4.26q0,4.72,2.37,7A8.33,8.33,0,0,0,670.29,220.18Z"/><path class="cls-7" d="M700.24,224.27a14,14,0,0,1-6.94-1.58,15.92,15.92,0,0,1-4.81-4.24l3.29-2.64a12.78,12.78,0,0,0,3.86,3.36,10,10,0,0,0,5,1.19,7.38,7.38,0,0,0,4.58-1.27,4.61,4.61,0,0,0,.52-6.54,6.93,6.93,0,0,0-4.06-1.7l-2.37-.34a19.78,19.78,0,0,1-3.8-.9,10.48,10.48,0,0,1-3-1.61,6.87,6.87,0,0,1-2-2.51,8.12,8.12,0,0,1-.72-3.57,8.57,8.57,0,0,1,.81-3.83,7.78,7.78,0,0,1,2.22-2.73,9.55,9.55,0,0,1,3.37-1.64,15.29,15.29,0,0,1,4.2-.55,13.06,13.06,0,0,1,6.08,1.27,13.54,13.54,0,0,1,4.29,3.51l-3,2.76a9.13,9.13,0,0,0-7.66-3.63,6.62,6.62,0,0,0-4.35,1.24,4.18,4.18,0,0,0-1.47,3.37,3.53,3.53,0,0,0,1.47,3.17,11.07,11.07,0,0,0,4.23,1.44l2.3.35q5,.75,7,2.85a7.5,7.5,0,0,1,2.08,5.5,8.42,8.42,0,0,1-2.94,6.8Q705.37,224.27,700.24,224.27Z"/><path class="cls-4" d="M729.62,187.64v35.94h-4.84V187.64H712v-4.26h30.42v4.26Z"/><path class="cls-4" d="M756.06,224.27a13.36,13.36,0,0,1-5.47-1.09,11.87,11.87,0,0,1-4.24-3.14,14.75,14.75,0,0,1-2.73-4.9,21.42,21.42,0,0,1,0-12.81,14.8,14.8,0,0,1,2.73-4.93,11.87,11.87,0,0,1,4.24-3.14,13.36,13.36,0,0,1,5.47-1.09,13.15,13.15,0,0,1,5.44,1.09,12.22,12.22,0,0,1,4.24,3.14,14.51,14.51,0,0,1,2.76,4.93,21.42,21.42,0,0,1,0,12.81,14.46,14.46,0,0,1-2.76,4.9,12.22,12.22,0,0,1-4.24,3.14A13.15,13.15,0,0,1,756.06,224.27Zm0-4.09a8.35,8.35,0,0,0,6.1-2.3q2.37-2.31,2.37-7v-4.26q0-4.72-2.37-7a9.25,9.25,0,0,0-12.21,0q-2.36,2.31-2.36,7v4.26q0,4.72,2.36,7A8.37,8.37,0,0,0,756.06,220.18Z"/><path class="cls-4" d="M788.31,224.27a13.39,13.39,0,0,1-5.47-1.09,11.83,11.83,0,0,1-4.23-3.14,14.94,14.94,0,0,1-2.74-4.9,21.42,21.42,0,0,1,0-12.81,15,15,0,0,1,2.74-4.93,11.83,11.83,0,0,1,4.23-3.14,13.39,13.39,0,0,1,5.47-1.09,13.2,13.2,0,0,1,5.45,1.09A12.19,12.19,0,0,1,798,197.4a14.7,14.7,0,0,1,2.77,4.93,21.42,21.42,0,0,1,0,12.81A14.65,14.65,0,0,1,798,220a12.19,12.19,0,0,1-4.23,3.14A13.2,13.2,0,0,1,788.31,224.27Zm0-4.09a8.35,8.35,0,0,0,6.11-2.3q2.36-2.31,2.36-7v-4.26q0-4.72-2.36-7a9.25,9.25,0,0,0-12.21,0c-1.58,1.54-2.36,3.88-2.36,7v4.26c0,3.15.78,5.49,2.36,7A8.35,8.35,0,0,0,788.31,220.18Z"/><path class="cls-4" d="M814.23,223.58a4.7,4.7,0,0,1-3.65-1.35,4.87,4.87,0,0,1-1.24-3.43V181H814v38.53h4.37v4.09Z"/><path class="cls-4" d="M825,181h4.6v27h.23l4.55-5.07,8.41-9h5.59l-11,11.75,12.1,18H843.9l-9.85-15.15L829.61,213v10.6H825Z"/><path class="cls-4" d="M857.66,186.89a2.84,2.84,0,0,1-2.16-.72,2.65,2.65,0,0,1-.66-1.87v-.75a2.65,2.65,0,0,1,.66-1.87,2.84,2.84,0,0,1,2.16-.72,2.81,2.81,0,0,1,2.16.72,2.62,2.62,0,0,1,.67,1.87v.75a2.62,2.62,0,0,1-.67,1.87A2.81,2.81,0,0,1,857.66,186.89Zm-2.3,7H860v29.72h-4.61Z"/><path class="cls-4" d="M876.33,223.58a4.71,4.71,0,0,1-3.66-1.35,5,5,0,0,1-1.24-3.53V198h-4.9v-4.09h2.77a2.66,2.66,0,0,0,2-.61,3.09,3.09,0,0,0,.55-2.1v-5.53H876v8.24h6.51V198H876v21.54h6.05v4.09Z"/><path class="cls-7" d="M206.45,223.58v-15.9l-13.83-24.3h5.53l10.72,19.35H209l10.71-19.35h5.53l-14,24.13v16.07Z"/><path class="cls-7" d="M239.28,224.27a13.36,13.36,0,0,1-5.47-1.09,12,12,0,0,1-4.24-3.14,14.75,14.75,0,0,1-2.73-4.9,21.42,21.42,0,0,1,0-12.81,14.8,14.8,0,0,1,2.73-4.93,12,12,0,0,1,4.24-3.14,13.36,13.36,0,0,1,5.47-1.09,13.15,13.15,0,0,1,5.44,1.09A12.22,12.22,0,0,1,249,197.4a14.51,14.51,0,0,1,2.76,4.93,21.42,21.42,0,0,1,0,12.81A14.46,14.46,0,0,1,249,220a12.22,12.22,0,0,1-4.24,3.14A13.15,13.15,0,0,1,239.28,224.27Zm0-4.09a8.37,8.37,0,0,0,6.11-2.3q2.36-2.31,2.36-7v-4.26q0-4.72-2.36-7a9.27,9.27,0,0,0-12.22,0q-2.35,2.31-2.36,7v4.26q0,4.72,2.36,7A8.37,8.37,0,0,0,239.28,220.18Z"/><path class="cls-7" d="M278.62,218.8h-.23a14.43,14.43,0,0,1-1.12,2,7.43,7.43,0,0,1-1.64,1.77,7.92,7.92,0,0,1-2.37,1.23,10.39,10.39,0,0,1-3.22.45,9.46,9.46,0,0,1-7.32-3q-2.7-3-2.7-8.38V193.86h4.6v18.3q0,8,6.8,8a10.42,10.42,0,0,0,2.68-.34,7.43,7.43,0,0,0,2.3-1A5.36,5.36,0,0,0,278,217a5.17,5.17,0,0,0,.6-2.57V193.86h4.61v29.72h-4.61Z"/><path class="cls-7" d="M1113.92,183.38h13.48a17.63,17.63,0,0,1,6.79,1.26,13.82,13.82,0,0,1,5.22,3.78,17.17,17.17,0,0,1,3.31,6.27,34.13,34.13,0,0,1,0,17.57,17.13,17.13,0,0,1-3.31,6.28,13.69,13.69,0,0,1-5.22,3.77,17.44,17.44,0,0,1-6.79,1.27h-13.48Zm13.48,35.94a12,12,0,0,0,4.55-.84,9.8,9.8,0,0,0,3.57-2.44,11.36,11.36,0,0,0,2.33-3.95,15.69,15.69,0,0,0,.84-5.33V200.2a15.65,15.65,0,0,0-.84-5.33,11.36,11.36,0,0,0-2.33-4,10,10,0,0,0-3.57-2.45,12.23,12.23,0,0,0-4.55-.83h-8.64v31.68Z"/><path class="cls-7" d="M1152.11,223.58V193.86h4.6v5.47h.29a9,9,0,0,1,2.88-3.8,8.89,8.89,0,0,1,5.7-1.67h1.79v4.61h-2.71a10.4,10.4,0,0,0-5.84,1.41,4.17,4.17,0,0,0-2.11,3.54v20.16Z"/><path class="cls-7" d="M1175.55,186.89a2.81,2.81,0,0,1-2.16-.72,2.65,2.65,0,0,1-.66-1.87v-.75a2.65,2.65,0,0,1,.66-1.87,3.6,3.6,0,0,1,4.32,0,2.65,2.65,0,0,1,.66,1.87v.75a2.65,2.65,0,0,1-.66,1.87A2.81,2.81,0,0,1,1175.55,186.89Zm-2.3,7h4.6v29.72h-4.6Z"/><path class="cls-7" d="M1194.21,223.58l-10.42-29.72h4.6l5.19,14.74,3.22,10.14h.29l3.23-10.14,5.3-14.74h4.43l-10.48,29.72Z"/><path class="cls-7" d="M1226.7,224.27a13.3,13.3,0,0,1-5.5-1.09A11.85,11.85,0,0,1,1217,220a14.35,14.35,0,0,1-2.7-4.9,21.85,21.85,0,0,1,0-12.81,14.4,14.4,0,0,1,2.7-4.93,11.85,11.85,0,0,1,4.21-3.14,13.3,13.3,0,0,1,5.5-1.09,12.57,12.57,0,0,1,5.35,1.09,12,12,0,0,1,4,3,13.58,13.58,0,0,1,2.56,4.57,17.85,17.85,0,0,1,.89,5.79v2.18h-21.37v1.39a10.24,10.24,0,0,0,.61,3.54,8.42,8.42,0,0,0,1.73,2.85,7.78,7.78,0,0,0,2.76,1.9,9.53,9.53,0,0,0,3.72.69,9,9,0,0,0,4.92-1.32,8.71,8.71,0,0,0,3.26-3.8l3.28,2.37a11.52,11.52,0,0,1-4.49,5A13.62,13.62,0,0,1,1226.7,224.27Zm0-27.24a8.78,8.78,0,0,0-3.46.66,7.87,7.87,0,0,0-2.68,1.86,8.77,8.77,0,0,0-1.75,2.83,9.66,9.66,0,0,0-.64,3.58v.4h16.42v-.63a9.07,9.07,0,0,0-2.16-6.33A7.38,7.38,0,0,0,1226.7,197Z"/><path class="cls-7" d="M1247.15,223.58V193.86h4.6v5.47h.29a9,9,0,0,1,2.88-3.8,8.87,8.87,0,0,1,5.7-1.67h1.79v4.61h-2.71a10.4,10.4,0,0,0-5.84,1.41,4.15,4.15,0,0,0-2.11,3.54v20.16Z"/><path class="cls-7" d="M1277.21,224.27a14,14,0,0,1-6.94-1.58,15.92,15.92,0,0,1-4.81-4.24l3.29-2.64a12.87,12.87,0,0,0,3.85,3.36,10.06,10.06,0,0,0,5,1.19,7.38,7.38,0,0,0,4.58-1.27,4.27,4.27,0,0,0,1.64-3.57,4.32,4.32,0,0,0-1.12-3,6.94,6.94,0,0,0-4.07-1.7l-2.36-.34a19.78,19.78,0,0,1-3.8-.9,10.48,10.48,0,0,1-3-1.61,6.87,6.87,0,0,1-2-2.51,8.12,8.12,0,0,1-.72-3.57,8.57,8.57,0,0,1,.81-3.83,7.67,7.67,0,0,1,2.22-2.73,9.55,9.55,0,0,1,3.37-1.64,15.29,15.29,0,0,1,4.2-.55,13.09,13.09,0,0,1,6.08,1.27,13.54,13.54,0,0,1,4.29,3.51l-3.05,2.76a9.13,9.13,0,0,0-7.67-3.63,6.59,6.59,0,0,0-4.34,1.24,4.18,4.18,0,0,0-1.47,3.37,3.53,3.53,0,0,0,1.47,3.17,11,11,0,0,0,4.23,1.44l2.3.35q5,.75,7,2.85a7.49,7.49,0,0,1,2.07,5.5,8.41,8.41,0,0,1-2.93,6.8Q1282.34,224.27,1277.21,224.27Z"/><path class="cls-7" d="M1110.92,756.38v-40.2h16c3.6,0,6.38,1,8.32,3.08s2.91,4.86,2.91,8.44-1,6.38-2.91,8.43-4.72,3.09-8.32,3.09h-11.18v17.16Zm4.84-21.43h11.18a6.23,6.23,0,0,0,4.46-1.49,5.58,5.58,0,0,0,1.58-4.27v-3a5.57,5.57,0,0,0-1.58-4.26,6.23,6.23,0,0,0-4.46-1.5h-11.18Z"/><path class="cls-7" d="M1150.26,756.38a4.7,4.7,0,0,1-3.65-1.35,4.89,4.89,0,0,1-1.24-3.43V713.76H1150v38.53h4.37v4.09Z"/><path class="cls-7" d="M1179.35,751.6h-.23a14.43,14.43,0,0,1-1.12,2,7.43,7.43,0,0,1-1.64,1.77,8,8,0,0,1-2.36,1.23,10.5,10.5,0,0,1-3.23.45,9.46,9.46,0,0,1-7.32-3q-2.7-3-2.7-8.39V726.66h4.6V745q0,8,6.8,8a10.36,10.36,0,0,0,2.68-.34,7.43,7.43,0,0,0,2.3-1,5.25,5.25,0,0,0,1.62-1.76,5.19,5.19,0,0,0,.6-2.57V726.66H1184v29.72h-4.61Z"/><path class="cls-7" d="M1218.81,759.69a7.3,7.3,0,0,1-3.6,6.75q-3.6,2.14-10.8,2.15-7,0-10-1.9a6,6,0,0,1-3.05-5.4,5.26,5.26,0,0,1,1.27-3.77,7.44,7.44,0,0,1,3.46-2v-.63a4.27,4.27,0,0,1-2.65-4.13,4.14,4.14,0,0,1,1.44-3.41,9.34,9.34,0,0,1,3.68-1.75v-.23a9.67,9.67,0,0,1-4.12-3.64,10.19,10.19,0,0,1-1.46-5.49,10.53,10.53,0,0,1,.8-4.16,9.32,9.32,0,0,1,2.28-3.26,10.32,10.32,0,0,1,3.51-2.11,14.38,14.38,0,0,1,10.22.4v-.52a4.88,4.88,0,0,1,.81-2.89,3,3,0,0,1,2.65-1.14h4.44v4.09H1212v1.91a9.77,9.77,0,0,1,2.51,3.32,10.36,10.36,0,0,1,.89,4.36,10.53,10.53,0,0,1-.81,4.16,9.29,9.29,0,0,1-2.27,3.26,10.26,10.26,0,0,1-3.54,2.11,13.51,13.51,0,0,1-4.61.75,14.07,14.07,0,0,1-2.88-.29,9.89,9.89,0,0,0-2.71,1.18,2.43,2.43,0,0,0-1.21,2.16,1.75,1.75,0,0,0,1.27,1.79,9.68,9.68,0,0,0,3.28.46h6.34q5.52,0,8,2.1A7.11,7.11,0,0,1,1218.81,759.69Zm-4.32.32a3.43,3.43,0,0,0-1.36-2.85c-.9-.71-2.5-1.07-4.81-1.07h-9.9a4.21,4.21,0,0,0-2.77,4,4.44,4.44,0,0,0,1.47,3.35q1.47,1.38,5,1.38h4.27a12.21,12.21,0,0,0,6-1.21A3.93,3.93,0,0,0,1214.49,760Zm-10.31-17.17a7.14,7.14,0,0,0,4.66-1.41,5.31,5.31,0,0,0,1.73-4.37v-1.62a5.31,5.31,0,0,0-1.73-4.37,8.37,8.37,0,0,0-9.33,0,5.34,5.34,0,0,0-1.73,4.37v1.62a5.34,5.34,0,0,0,1.73,4.37A7.17,7.17,0,0,0,1204.18,742.84Z"/><path class="cls-7" d="M1226.47,719.69a2.81,2.81,0,0,1-2.16-.72,2.65,2.65,0,0,1-.66-1.87v-.75a2.65,2.65,0,0,1,.66-1.87,3.6,3.6,0,0,1,4.32,0,2.65,2.65,0,0,1,.66,1.87v.75a2.65,2.65,0,0,1-.66,1.87A2.81,2.81,0,0,1,1226.47,719.69Zm-2.3,7h4.6v29.72h-4.6Z"/><path class="cls-7" d="M1238.57,756.38V726.66h4.6v4.78h.23a9.69,9.69,0,0,1,3.09-4,8.66,8.66,0,0,1,5.32-1.48,9.36,9.36,0,0,1,7.29,3c1.78,2,2.68,4.78,2.68,8.39v19.06h-4.61v-18.3q0-8-6.74-8a10.42,10.42,0,0,0-2.68.34,8.08,8.08,0,0,0-2.33,1,5.2,5.2,0,0,0-1.64,1.76,5.07,5.07,0,0,0-.61,2.51v20.67Z"/><path class="cls-7" d="M1280.21,757.07a14,14,0,0,1-6.94-1.58,15.8,15.8,0,0,1-4.81-4.24l3.28-2.65a12.8,12.8,0,0,0,3.86,3.37,10,10,0,0,0,5,1.19,7.35,7.35,0,0,0,4.57-1.27,4.59,4.59,0,0,0,.52-6.54,6.9,6.9,0,0,0-4.06-1.7l-2.36-.34a19.78,19.78,0,0,1-3.8-.9,10.48,10.48,0,0,1-3-1.61,6.87,6.87,0,0,1-2-2.51,8.12,8.12,0,0,1-.72-3.57,8.57,8.57,0,0,1,.81-3.83,7.65,7.65,0,0,1,2.21-2.73,9.63,9.63,0,0,1,3.37-1.64,15.41,15.41,0,0,1,4.21-.55,13,13,0,0,1,6.07,1.27,13.47,13.47,0,0,1,4.3,3.51l-3.06,2.76a9.12,9.12,0,0,0-2.88-2.5,9.24,9.24,0,0,0-4.78-1.13,6.64,6.64,0,0,0-4.35,1.24,4.18,4.18,0,0,0-1.47,3.37,3.53,3.53,0,0,0,1.47,3.17,11.06,11.06,0,0,0,4.24,1.44l2.3.35q5,.75,7,2.85a7.49,7.49,0,0,1,2.07,5.5,8.43,8.43,0,0,1-2.94,6.8Q1285.34,757.08,1280.21,757.07Z"/><path class="cls-7" d="M1533.32,223.58v-15.9l-13.82-24.3H1525l10.71,19.35h.18l10.71-19.35h5.53l-14,24.13v16.07Z"/><path class="cls-7" d="M1566.16,224.27a13.41,13.41,0,0,1-5.48-1.09,11.83,11.83,0,0,1-4.23-3.14,14.94,14.94,0,0,1-2.74-4.9,21.42,21.42,0,0,1,0-12.81,15,15,0,0,1,2.74-4.93,11.83,11.83,0,0,1,4.23-3.14,13.41,13.41,0,0,1,5.48-1.09,13.18,13.18,0,0,1,5.44,1.09,12.19,12.19,0,0,1,4.23,3.14,14.7,14.7,0,0,1,2.77,4.93,21.42,21.42,0,0,1,0,12.81,14.65,14.65,0,0,1-2.77,4.9,12.19,12.19,0,0,1-4.23,3.14A13.18,13.18,0,0,1,1566.16,224.27Zm0-4.09a8.35,8.35,0,0,0,6.1-2.3q2.35-2.31,2.36-7v-4.26q0-4.72-2.36-7a9.25,9.25,0,0,0-12.21,0c-1.58,1.54-2.36,3.88-2.36,7v4.26c0,3.15.78,5.49,2.36,7A8.35,8.35,0,0,0,1566.16,220.18Z"/><path class="cls-7" d="M1605.5,218.8h-.23a14.51,14.51,0,0,1-1.13,2,7.43,7.43,0,0,1-1.64,1.77,7.86,7.86,0,0,1-2.36,1.23,10.46,10.46,0,0,1-3.23.45,9.42,9.42,0,0,1-7.31-3q-2.71-3-2.71-8.38V193.86h4.61v18.3q0,8,6.8,8a10.29,10.29,0,0,0,2.67-.34,7.38,7.38,0,0,0,2.31-1,5.22,5.22,0,0,0,1.61-1.76,5.17,5.17,0,0,0,.61-2.57V193.86h4.6v29.72h-4.6Z"/><path class="cls-7" d="M1619.9,223.58V193.86h4.6v5.47h.29a9,9,0,0,1,2.88-3.8,8.87,8.87,0,0,1,5.7-1.67h1.79v4.61h-2.71a10.4,10.4,0,0,0-5.84,1.41,4.15,4.15,0,0,0-2.11,3.54v20.16Z"/><path class="cls-7" d="M1666.38,224.27a17.26,17.26,0,0,1-8.35-1.87,17.76,17.76,0,0,1-5.88-5.15l3.57-3a15.67,15.67,0,0,0,4.73,4.29,12.14,12.14,0,0,0,6.1,1.47q4.32,0,6.6-2.07a7.16,7.16,0,0,0,2.27-5.53,5.68,5.68,0,0,0-1.73-4.44,13,13,0,0,0-5.7-2.48l-3.28-.74a19.22,19.22,0,0,1-8.44-3.83,9.13,9.13,0,0,1-2.91-7.23,11,11,0,0,1,1-4.73,9.36,9.36,0,0,1,2.74-3.45,12.36,12.36,0,0,1,4.2-2.1,19,19,0,0,1,5.39-.72,16.82,16.82,0,0,1,7.8,1.67,15,15,0,0,1,5.5,4.89l-3.63,2.65a12.66,12.66,0,0,0-4-3.63,11.88,11.88,0,0,0-5.87-1.32,10,10,0,0,0-6.08,1.64,5.73,5.73,0,0,0-2.22,4.92,5.19,5.19,0,0,0,1.87,4.35,14.54,14.54,0,0,0,5.68,2.34l3.28.74c4,.89,6.82,2.23,8.58,4a9.82,9.82,0,0,1,2.65,7.2,12.82,12.82,0,0,1-1,5,10.23,10.23,0,0,1-2.73,3.8,12.72,12.72,0,0,1-4.35,2.42A18.25,18.25,0,0,1,1666.38,224.27Z"/><path class="cls-7" d="M1706.41,193.86H1711l-13.31,36.63a16.27,16.27,0,0,1-1,2.22,4.25,4.25,0,0,1-1.27,1.41,4.89,4.89,0,0,1-1.87.75,14.16,14.16,0,0,1-2.74.23h-2.36V231h4.67l2.24-6.32-11.11-30.83h4.6l7.15,20.18,1.38,4.83h.29l1.61-4.83Z"/><path class="cls-7" d="M1725.53,224.27a14,14,0,0,1-6.94-1.58,15.8,15.8,0,0,1-4.81-4.24l3.28-2.64a13,13,0,0,0,3.86,3.36,10.06,10.06,0,0,0,5,1.19,7.38,7.38,0,0,0,4.58-1.27,4.27,4.27,0,0,0,1.64-3.57,4.32,4.32,0,0,0-1.12-3,6.94,6.94,0,0,0-4.07-1.7l-2.36-.34a19.78,19.78,0,0,1-3.8-.9,10.48,10.48,0,0,1-3-1.61,6.87,6.87,0,0,1-2-2.51,8.12,8.12,0,0,1-.72-3.57,8.57,8.57,0,0,1,.81-3.83,7.57,7.57,0,0,1,2.22-2.73,9.58,9.58,0,0,1,3.36-1.64,15.41,15.41,0,0,1,4.21-.55,13.09,13.09,0,0,1,6.08,1.27A13.54,13.54,0,0,1,1736,198l-3,2.76a9.17,9.17,0,0,0-7.67-3.63,6.59,6.59,0,0,0-4.34,1.24,4.18,4.18,0,0,0-1.47,3.37,3.53,3.53,0,0,0,1.47,3.17,11,11,0,0,0,4.23,1.44l2.3.35q5,.75,7,2.85a7.49,7.49,0,0,1,2.07,5.5,8.44,8.44,0,0,1-2.93,6.8Q1730.66,224.27,1725.53,224.27Z"/><path class="cls-7" d="M1750.82,223.58a4.73,4.73,0,0,1-3.66-1.35,5,5,0,0,1-1.24-3.53V198H1741v-4.09h2.76a2.7,2.7,0,0,0,2-.61,3.15,3.15,0,0,0,.54-2.1v-5.53h4.15v8.24H1757V198h-6.51v21.54h6v4.09Z"/><path class="cls-7" d="M1775.41,224.27a13.34,13.34,0,0,1-5.5-1.09,11.9,11.9,0,0,1-4.2-3.14,14.37,14.37,0,0,1-2.71-4.9,22.07,22.07,0,0,1,0-12.81,14.42,14.42,0,0,1,2.71-4.93,11.9,11.9,0,0,1,4.2-3.14,13.34,13.34,0,0,1,5.5-1.09,12.58,12.58,0,0,1,5.36,1.09,11.91,11.91,0,0,1,4,3,13.43,13.43,0,0,1,2.57,4.57,18.12,18.12,0,0,1,.89,5.79v2.18h-21.37v1.39a10.24,10.24,0,0,0,.6,3.54,8.58,8.58,0,0,0,1.73,2.85,7.82,7.82,0,0,0,2.77,1.9,9.47,9.47,0,0,0,3.71.69,9.11,9.11,0,0,0,4.93-1.32,8.69,8.69,0,0,0,3.25-3.8l3.28,2.37a11.46,11.46,0,0,1-4.49,5A13.58,13.58,0,0,1,1775.41,224.27Zm0-27.24a8.77,8.77,0,0,0-3.45.66,7.78,7.78,0,0,0-2.68,1.86,8.79,8.79,0,0,0-1.76,2.83,9.86,9.86,0,0,0-.63,3.58v.4h16.42v-.63a9.12,9.12,0,0,0-2.16-6.33A7.4,7.4,0,0,0,1775.41,197Z"/><path class="cls-7" d="M1795.86,223.58V193.86h4.61v4.78h.23a16.3,16.3,0,0,1,1.18-2.14,7.15,7.15,0,0,1,3.83-2.9,9.27,9.27,0,0,1,3-.43,10.72,10.72,0,0,1,5.41,1.4,8.46,8.46,0,0,1,3.69,4.59h.11a9.12,9.12,0,0,1,3-4.19,9.25,9.25,0,0,1,6-1.8,8.92,8.92,0,0,1,7.11,3q2.57,3,2.56,8.39v19.06H1832v-18.3c0-2.65-.51-4.65-1.55-6s-2.69-2-5-2a9.65,9.65,0,0,0-2.62.34,7.32,7.32,0,0,0-2.22,1,5.17,5.17,0,0,0-1.56,1.76,5.29,5.29,0,0,0-.57,2.52v20.66H1814v-18.3q0-4-1.56-6a5.7,5.7,0,0,0-4.84-2,10,10,0,0,0-2.64.34,7.27,7.27,0,0,0-2.25,1,5.48,5.48,0,0,0-1.59,1.76,5.08,5.08,0,0,0-.6,2.52v20.66Z"/><path class="cls-11" d="M297,603.4l-7.78-.94-.37.45a61.09,61.09,0,0,1-97.74,0l-.37-.45-7.74.94a32.59,32.59,0,0,0-28.51,32.34v48.62h171V635.74A32.59,32.59,0,0,0,297,603.4Z"/><path class="cls-12" d="M178.91,604.21a32.59,32.59,0,0,0-24.44,31.53v48.62h24.44Z"/><rect class="cls-13" x="154.47" y="676.22" width="171.05" height="8.15"/><rect class="cls-13" x="154.47" y="655.86" width="171.05" height="8.15"/><rect class="cls-13" x="154.47" y="635.49" width="171.05" height="8.15"/><rect class="cls-13" x="156.83" y="615.13" width="164.62" height="8.15"/><path class="cls-14" d="M288.87,480.73v24.43L284.8,529.6v16.29a32.58,32.58,0,0,0,32.58,32.58V513.31C317.38,498.12,305.16,480.73,288.87,480.73Z"/><path class="cls-15" d="M309.24,566.5A62.84,62.84,0,0,1,297,529.6V482.23a23.9,23.9,0,0,0-8.15-1.5v24.43L284.8,529.6v16.29a32.58,32.58,0,0,0,32.58,32.58V578Z"/><path class="cls-16" d="M288.87,602.91l.33-.45-21.71-2.73a8.14,8.14,0,0,1-7.13-8.14V574.4H219.64v17.23a8.14,8.14,0,0,1-7.13,8.14l-21.75,2.73.37.41a61.07,61.07,0,0,0,97.74,0Z"/><path class="cls-17" d="M260.36,584.58V570.33H219.64v14.25A37,37,0,0,0,260.36,584.58Z"/><path class="cls-16" d="M284.8,505.16l-2.24,32.59A42.6,42.6,0,0,1,240,578.47h0a42.6,42.6,0,0,1-42.56-40.72l-2.24-32.59s24.44-24.43,28.51-36.65C223.71,468.51,260.36,501.09,284.8,505.16Z"/><path class="cls-17" d="M195.2,505.16l2.24,32.59a42.51,42.51,0,0,0,24.23,36.65c-11.32-25-13.89-60-14.33-80.64C201,500.2,195.2,505.16,195.2,505.16Z"/><path class="cls-14" d="M288.87,505.16l.33-2.56a51.68,51.68,0,0,0-44.39-58.07,50.64,50.64,0,0,0-6.85-.46h0a51.7,51.7,0,0,0-51.69,51.68,50.74,50.74,0,0,0,.46,6.85l.33,2.56h8.14c8.15-8.39,24.84-25.33,28.51-36.65.53,1.87,37.84,36.65,61.09,36.65Z"/><path class="cls-17" d="M195.2,529.6h-4.07a12.22,12.22,0,0,1-12.22-12.22h0a12.22,12.22,0,0,1,12.22-12.22h4.07"/><path class="cls-18" d="M219.64,529.6H207.42a12.22,12.22,0,0,1-12.22-12.22V505.16h36.65v12.22A12.22,12.22,0,0,1,219.64,529.6Z"/><path class="cls-18" d="M268.51,529.6H256.29a12.22,12.22,0,0,1-12.22-12.22V505.16h36.66v12.22A12.22,12.22,0,0,1,268.51,529.6Z"/><path class="cls-16" d="M284.8,529.6h4.07a12.22,12.22,0,0,0,12.22-12.22h0a12.22,12.22,0,0,0-12.22-12.22H284.8"/><path class="cls-15" d="M212.59,450.75a51.62,51.62,0,0,0-25.86,51.85l.32,2.56h8.15c4.36-4.35,11-11,16.86-18.12A145.47,145.47,0,0,1,212.59,450.75Z"/><path d="M284.8,509.24c-19.67,0-48.23-22.18-59.84-33.53-6.36,11.82-19.38,24.84-26.88,32.33l-5.76-5.76c7.71-7.71,23.76-23.75,27.52-35.06a3.94,3.94,0,0,1,4-2.78,4.07,4.07,0,0,1,3.46,2.07c3.13,3.87,37.33,34.58,57.54,34.58Z"/><rect x="231.85" y="501.09" width="12.22" height="8.15"/><path d="M292.91,505.68l-8.08-1,.33-2.56a48.33,48.33,0,0,0,.42-6.34A47.66,47.66,0,0,0,238,448.15h0a47.61,47.61,0,0,0-47.2,53.91l.33,2.59-8.08,1-.32-2.56a55.76,55.76,0,0,1,47.89-62.63A58.63,58.63,0,0,1,238,440h0a55.75,55.75,0,0,1,55.76,55.75,56.82,56.82,0,0,1-.49,7.38Z"/><path d="M238.71,541.61l-12.22-4.07a4.08,4.08,0,0,1-2.62-5L232,504l7.84,2.24L232.77,531l8.52,2.84Z"/><path d="M288.87,533.67H284.8v-8.14h4.07a8.15,8.15,0,1,0,0-16.29H284.8v-8.15h4.07a16.29,16.29,0,1,1,0,32.58Z"/><path d="M240,582.55a46.6,46.6,0,0,1-46.63-44.62l-2.23-32.49,8.12-.56,2.24,32.58a38.53,38.53,0,0,0,77,.11l2.25-36.73,8.13.5L286.63,538A46.58,46.58,0,0,1,240,582.55Z"/><path d="M195.2,533.67h-4.07a16.29,16.29,0,0,1,0-32.58h4.07v8.15h-4.07a8.15,8.15,0,1,0,0,16.29h4.07v8.14Z"/><path d="M235,554h-3.11v-8.15H235a34.77,34.77,0,0,0,15.44-3.64l3.64,7.28A42.83,42.83,0,0,1,235,554Z"/><path d="M317.38,582.55a36.7,36.7,0,0,1-36.65-36.66V529.6h8.14v16.29a28.55,28.55,0,0,0,24.44,28.22v-60.8c0-13.18-10.68-28.51-24.44-28.51v-8.15c18.65,0,32.58,19.35,32.58,36.66v65.16A4.07,4.07,0,0,1,317.38,582.55Z"/><path d="M219.64,533.67H207.42a16.3,16.3,0,0,1-16.29-16.29V505.16a4.07,4.07,0,0,1,4.07-4.07h36.65a4.08,4.08,0,0,1,4.08,4.07v12.22A16.31,16.31,0,0,1,219.64,533.67Zm-20.37-24.43v8.14a8.16,8.16,0,0,0,8.15,8.15h12.22a8.16,8.16,0,0,0,8.14-8.15v-8.14Z"/><path d="M268.51,533.67H256.29A16.31,16.31,0,0,1,240,517.38V505.16a4.07,4.07,0,0,1,4.07-4.07h36.66a4.07,4.07,0,0,1,4.07,4.07v12.22A16.31,16.31,0,0,1,268.51,533.67Zm-20.36-24.43v8.14a8.16,8.16,0,0,0,8.14,8.15h12.22a8.16,8.16,0,0,0,8.15-8.15v-8.14Z"/><path d="M240.08,631.39a65.1,65.1,0,0,1-52.21-26l6.52-4.88a57,57,0,0,0,79.83,11.4,57.54,57.54,0,0,0,11.4-11.4l6.51,4.88a65.08,65.08,0,0,1-52,26Z"/><path d="M158.55,684.36H150.4V635.74a36.71,36.71,0,0,1,32.07-36.38l29.5-3.67a4.08,4.08,0,0,0,3.56-4.07V574.4h8.14v17.19A12.2,12.2,0,0,1,213,603.77l-29.49,3.67a28.55,28.55,0,0,0-24.94,28.3Z"/><path d="M329.6,684.36h-8.15V635.74a28.56,28.56,0,0,0-24.94-28.3L267,603.78a12.22,12.22,0,0,1-10.7-12.22V574.4h8.15v17.19a4.07,4.07,0,0,0,3.56,4.1l29.48,3.67a36.72,36.72,0,0,1,32.08,36.38v48.62Z"/><circle cx="215.56" cy="513.31" r="8.15"/><circle cx="264.44" cy="513.31" r="8.15"/><g id="g3052"><path id="path3055" class="cls-19" d="M1128.06,271.21a5.5,5.5,0,0,0-2.14.54l-29.22,14a5.54,5.54,0,0,0-3,3.76l-7.21,31.35a5.53,5.53,0,0,0,.76,4.25,5,5,0,0,0,.32.44l20.22,25.15a5.6,5.6,0,0,0,4.37,2.08h32.43a5.61,5.61,0,0,0,4.37-2.09l20.21-25.14a5.51,5.51,0,0,0,1.08-4.69L1163,289.46a5.56,5.56,0,0,0-3-3.76l-29.22-13.95A5.61,5.61,0,0,0,1128.06,271.21Z"/><path id="path3059" class="cls-20" d="M1128.35,281.88a1.85,1.85,0,0,0-1.75,1.94.09.09,0,0,0,0,.05c0,.15,0,.32,0,.45a14.1,14.1,0,0,0,.24,1.66,15.76,15.76,0,0,1,.19,3.17,1.9,1.9,0,0,1-.56.91l0,.74a21.89,21.89,0,0,0-3.17.48,22.43,22.43,0,0,0-11.42,6.53l-.63-.45a1.39,1.39,0,0,1-1-.1,15.73,15.73,0,0,1-2.36-2.13,13,13,0,0,0-1.15-1.22l-.39-.31a2.08,2.08,0,0,0-1.22-.46,1.67,1.67,0,0,0-1.39.62,1.86,1.86,0,0,0,.43,2.58h0l.37.3a15.46,15.46,0,0,0,1.45.84,16.69,16.69,0,0,1,2.6,1.83,2,2,0,0,1,.35,1l.56.5a22.64,22.64,0,0,0-3.57,15.78l-.73.21a2.47,2.47,0,0,1-.75.76,16.74,16.74,0,0,1-3.14.51,14.27,14.27,0,0,0-1.68.14,4.35,4.35,0,0,0-.46.11h0a1.75,1.75,0,1,0,.77,3.4h.06l.46-.1c.59-.16,1-.4,1.57-.6a16.22,16.22,0,0,1,3-.9,1.92,1.92,0,0,1,1,.36l.76-.14a22.79,22.79,0,0,0,10.09,12.6l-.32.76a1.74,1.74,0,0,1,.15,1,16.31,16.31,0,0,1-1.58,2.84,14.83,14.83,0,0,0-.94,1.4c-.07.13-.15.33-.22.47a1.76,1.76,0,1,0,3.16,1.5h0c.07-.13.16-.31.22-.44a13.45,13.45,0,0,0,.5-1.61,12.05,12.05,0,0,1,1.36-3.14,1.43,1.43,0,0,1,.75-.36l.4-.72a22.55,22.55,0,0,0,13.13.94,22.19,22.19,0,0,0,3-.9c.11.2.32.58.38.67a1.41,1.41,0,0,1,.89.54,16.56,16.56,0,0,1,1.2,2.94,13.55,13.55,0,0,0,.51,1.61c0,.13.15.31.21.45a1.76,1.76,0,1,0,3.17-1.5c-.07-.14-.16-.34-.23-.47a14.66,14.66,0,0,0-.94-1.39,16.71,16.71,0,0,1-1.55-2.78,1.38,1.38,0,0,1,.13-1c-.06-.08-.2-.51-.29-.71A22.68,22.68,0,0,0,1150,320.33l.75.13a1.39,1.39,0,0,1,1-.36,15.78,15.78,0,0,1,3,.9,16,16,0,0,0,1.57.6c.12,0,.31.07.45.1h.06a1.75,1.75,0,1,0,.78-3.4c-.15,0-.37-.1-.51-.12a14.09,14.09,0,0,0-1.68-.14,16.76,16.76,0,0,1-3.13-.51,2,2,0,0,1-.76-.76l-.7-.21a22.75,22.75,0,0,0-3.65-15.74c.18-.16.53-.46.62-.55a1.39,1.39,0,0,1,.33-1,16.69,16.69,0,0,1,2.6-1.83,13.77,13.77,0,0,0,1.46-.85l.38-.31a1.76,1.76,0,1,0-2.18-2.73c-.12.09-.28.21-.39.31a13,13,0,0,0-1.15,1.22,16.3,16.3,0,0,1-2.36,2.13,2,2,0,0,1-1.06.12l-.67.47a22.91,22.91,0,0,0-14.51-7c0-.23,0-.66,0-.78a1.36,1.36,0,0,1-.57-.88,16.53,16.53,0,0,1,.19-3.17,14.1,14.1,0,0,0,.24-1.66c0-.14,0-.35,0-.5a1.85,1.85,0,0,0-1.75-1.94Zm-2.19,13.56-.52,9.18h0a1.54,1.54,0,0,1-1.54,1.48,1.48,1.48,0,0,1-.9-.3h0l-7.52-5.33a18.09,18.09,0,0,1,8.68-4.73C1124.92,295.62,1125.54,295.52,1126.16,295.44Zm4.38,0a18.18,18.18,0,0,1,10.48,5.05l-7.47,5.3h0a1.53,1.53,0,0,1-2.11-.28,1.48,1.48,0,0,1-.34-.9h0Zm-17.65,8.48,6.87,6.14v0a1.54,1.54,0,0,1,.2,2.12,1.69,1.69,0,0,1-.8.53v0l-8.8,2.54A18,18,0,0,1,1112.89,303.92Zm30.87,0a18.35,18.35,0,0,1,2.63,11.37l-8.84-2.55v0a1.54,1.54,0,0,1-.61-2.65v0l6.83-6.11Zm-16.82,6.61h2.82l1.74,2.19-.62,2.73-2.53,1.21-2.53-1.22-.63-2.72Zm9,7.48a2.19,2.19,0,0,1,.36,0v0l9.11,1.54a18.09,18.09,0,0,1-7.29,9.16l-3.54-8.54h0a1.55,1.55,0,0,1,.75-2,1.58,1.58,0,0,1,.59-.16Zm-15.29,0a1.54,1.54,0,0,1,1.39,2.15l0,0-3.5,8.46a18.14,18.14,0,0,1-7.27-9.1l9-1.53,0,0,.3,0Zm7.62,3.7a1.72,1.72,0,0,1,.73.16,1.57,1.57,0,0,1,.69.66h0l4.45,8a17.28,17.28,0,0,1-1.78.49,18.09,18.09,0,0,1-9.87-.5l4.44-8h0A1.55,1.55,0,0,1,1128.29,321.75Z"/></g><path class="cls-21" d="M1238.21,303.37a10.8,10.8,0,0,0,.38,3.12,19.23,19.23,0,0,0,1.12,2.51,1.49,1.49,0,0,1,.25.8,1.38,1.38,0,0,1-.67,1.05l-2.2,1.47a1.67,1.67,0,0,1-.91.32,1.64,1.64,0,0,1-1-.49,11,11,0,0,1-1.25-1.65c-.35-.59-.7-1.25-1.09-2.06a12.88,12.88,0,0,1-10.27,4.82,9.55,9.55,0,0,1-7-2.51,9.86,9.86,0,0,1,.59-13.91,12.74,12.74,0,0,1,8.57-2.73,28.48,28.48,0,0,1,3.7.28c1.29.18,2.62.46,4,.77v-2.55c0-2.65-.56-4.51-1.64-5.59s-3-1.61-5.7-1.61a15.6,15.6,0,0,0-3.77.46,26.78,26.78,0,0,0-3.78,1.19,11.07,11.07,0,0,1-1.22.45,2.13,2.13,0,0,1-.56.1c-.49,0-.73-.34-.73-1.08v-1.71a2.24,2.24,0,0,1,.24-1.22,2.67,2.67,0,0,1,1-.74,20.06,20.06,0,0,1,4.4-1.57,21.36,21.36,0,0,1,5.45-.66c4.16,0,7.2.94,9.16,2.83s2.9,4.75,2.9,8.59v11.32ZM1224,308.69a11.34,11.34,0,0,0,3.6-.63,7.75,7.75,0,0,0,3.32-2.24,5.52,5.52,0,0,0,1.19-2.24,12.46,12.46,0,0,0,.35-3v-1.46a28.29,28.29,0,0,0-3.22-.6,26.28,26.28,0,0,0-3.28-.21,8.08,8.08,0,0,0-5.21,1.4,5,5,0,0,0,3.25,9Zm28.06,3.77a1.93,1.93,0,0,1-1.33-.35,2.86,2.86,0,0,1-.73-1.36l-8.21-27a6.3,6.3,0,0,1-.32-1.4.77.77,0,0,1,.84-.88h3.43a2,2,0,0,1,1.36.35,2.86,2.86,0,0,1,.7,1.37l5.87,23.13,5.45-23.13a2.58,2.58,0,0,1,.66-1.37,2.41,2.41,0,0,1,1.4-.35h2.8a2.14,2.14,0,0,1,1.4.35,2.36,2.36,0,0,1,.66,1.37l5.52,23.41,6.05-23.41a3,3,0,0,1,.7-1.37,2.24,2.24,0,0,1,1.36-.35h3.25a.78.78,0,0,1,.87.88,3.05,3.05,0,0,1-.07.56,4.36,4.36,0,0,1-.24.87l-8.42,27a2.7,2.7,0,0,1-.74,1.37,2.23,2.23,0,0,1-1.33.35h-3a2.13,2.13,0,0,1-1.4-.35,2.5,2.5,0,0,1-.66-1.4l-5.42-22.54-5.38,22.5a2.75,2.75,0,0,1-.67,1.4,2.09,2.09,0,0,1-1.39.35Zm44.91.94a23.7,23.7,0,0,1-5.39-.62,16,16,0,0,1-4-1.4,2.6,2.6,0,0,1-1.09-1,2.51,2.51,0,0,1-.21-1v-1.78c0-.74.28-1.09.81-1.09a2,2,0,0,1,.63.11c.2.07.52.21.87.35a19.36,19.36,0,0,0,3.84,1.22,21,21,0,0,0,4.16.42,9.42,9.42,0,0,0,5.1-1.15,3.77,3.77,0,0,0,1.82-3.32,3.41,3.41,0,0,0-.94-2.45,8.74,8.74,0,0,0-3.53-1.81l-5.07-1.58a10.63,10.63,0,0,1-5.59-3.56,8.36,8.36,0,0,1-1.75-5.07,7.77,7.77,0,0,1,.95-3.88,8.82,8.82,0,0,1,2.51-2.86,11,11,0,0,1,3.64-1.82,15.14,15.14,0,0,1,4.4-.59,16.7,16.7,0,0,1,2.34.14c.8.1,1.54.24,2.27.38s1.36.35,2,.56a7.64,7.64,0,0,1,1.47.63,3.08,3.08,0,0,1,1,.87,1.9,1.9,0,0,1,.31,1.16v1.64c0,.73-.28,1.12-.8,1.12a3.67,3.67,0,0,1-1.33-.42,16,16,0,0,0-6.71-1.37,9,9,0,0,0-4.64,1,3.38,3.38,0,0,0-1.65,3.11,3.29,3.29,0,0,0,1,2.48,10.41,10.41,0,0,0,3.85,1.93l5,1.57a10.61,10.61,0,0,1,5.41,3.35,7.89,7.89,0,0,1,1.61,4.89,8.92,8.92,0,0,1-.91,4.06,9.42,9.42,0,0,1-2.55,3.07,11,11,0,0,1-3.88,2A16.54,16.54,0,0,1,1297,313.4Z"/><path class="cls-22" d="M1303.59,330.39c-11.5,8.49-28.2,13-42.56,13a77,77,0,0,1-52-19.82c-1.09-1-.11-2.3,1.18-1.53a104.89,104.89,0,0,0,52,13.8,103.75,103.75,0,0,0,39.66-8.11C1303.83,326.86,1305.48,329,1303.59,330.39Zm4.79-5.45c-1.47-1.89-9.72-.91-13.46-.46-1.11.14-1.29-.84-.28-1.57,6.57-4.61,17.37-3.29,18.63-1.75s-.35,12.37-6.5,17.54c-.94.81-1.85.39-1.43-.66C1306.74,334.58,1309.85,326.79,1308.38,324.94Z"/><path class="cls-23" d="M1118.89,449.1s1.61-6.1-5.39-14l-.23-.24a19.39,19.39,0,0,1,14.85-31.9h.46a19.39,19.39,0,0,1,14.86,31.9l-.24.24a18.55,18.55,0,0,0-5.39,14,28.28,28.28,0,0,0-7.84-55l-.56,0-1.06,0-1.06,0-.55,0a28.28,28.28,0,0,0-7.85,55"/><path class="cls-23" d="M1155.56,471.63a8.52,8.52,0,0,1,1.7-.5,11.42,11.42,0,0,1,2-.24s0-.22-.08-.55a5.13,5.13,0,0,0-.32-1.18c-.07-.21-.15-.42-.22-.61a5.18,5.18,0,0,0-.27-.53l-.28-.5a20.13,20.13,0,0,1-2-.46,17,17,0,0,1-1.83-.63,7.84,7.84,0,0,1-2.52-1.54,1.83,1.83,0,0,1-.72-1.58,1.32,1.32,0,0,1,.34-.69,2.09,2.09,0,0,1,.73-.57l-.61-.35-.63-.34L1150,461c-.51-.24-1-.49-1.46-.65l-.69-.28a11.56,11.56,0,0,1-1.59.11,16.46,16.46,0,0,1-1.72,0,17,17,0,0,1-3.22-.54,8.07,8.07,0,0,1-1.32-.46,5.59,5.59,0,0,1-1-.52c-.51-.37-.86-.75-.86-1.14l-.78-.13-2.17-.3c0,.11-.08.21-.1.4l-.17.8a3.15,3.15,0,0,0,2.16,3.68c3.85,1.12,6.76,3,7.6,5.23,1.7,4.58-5.44,9.06-16.29,9.06s-18-4.48-16.3-9.06c.82-2.21,3.62-4,7.33-5.15a3.32,3.32,0,0,0,2.26-3.87l-.23-1.09-1.44.18c-.65.07-1.26.19-1.74.26l-.78.13a1.44,1.44,0,0,1-.74,1.15,6,6,0,0,1-.92.55,11.42,11.42,0,0,1-1.27.47,13.56,13.56,0,0,1-1.55.36,14.33,14.33,0,0,1-1.67.22,17,17,0,0,1-3.35,0l-.19.07c-.12.05-.31.12-.49.21l-1.43.68c-.51.26-1,.54-1.34.74l-.45.25-.16.11a1.86,1.86,0,0,1,1.21,1.27,1.7,1.7,0,0,1-.54,1.62,6.62,6.62,0,0,1-1,.84,9.8,9.8,0,0,1-1.46.78,16,16,0,0,1-3.85,1.19,2.67,2.67,0,0,0-.23.51l-.4,1.17c-.07.43-.13.87-.17,1.21a1.83,1.83,0,0,0,0,.56,11,11,0,0,1,3.84.67,4.69,4.69,0,0,1,2.4,1.66,2.63,2.63,0,0,1,.22,2.46,5.87,5.87,0,0,1-2.18,2.79l.18.16.55.39c.47.32,1.06.78,1.76,1.2l2,1.12a7.07,7.07,0,0,0,.75.34l.29.13a18.13,18.13,0,0,1,5.27-1.27,15.55,15.55,0,0,1,2.63-.07,14.34,14.34,0,0,1,2.55.31,14.76,14.76,0,0,1,2.3.72,14.12,14.12,0,0,1,1.92,1.09,6.34,6.34,0,0,1,2.49,3.15l1.53.06c.91,0,2.14.11,3.36,0s2.44-.06,3.35-.12l1.49-.14a4.74,4.74,0,0,1,.78-1.75,5.56,5.56,0,0,1,.64-.74,8.33,8.33,0,0,1,.74-.71,8,8,0,0,1,1.82-1.11,10.44,10.44,0,0,1,2.21-.79,18.84,18.84,0,0,1,2.48-.4,25.26,25.26,0,0,1,2.61,0,18.87,18.87,0,0,1,5.35,1.13l.92-.51a17.5,17.5,0,0,0,1.88-1.16c.6-.45,1.23-.87,1.61-1.22l.62-.57a7.13,7.13,0,0,1-2.43-2.7,3,3,0,0,1-.28-1.26,1.75,1.75,0,0,1,.28-1.15,4,4,0,0,1,2.1-1.69"/><g class="cls-24"><rect class="cls-25" x="1095.43" y="422.7" width="65.73" height="37.26" transform="translate(531.84 1495.87) rotate(-81.87)"/></g><path class="cls-26" d="M1303.15,570.23c-.19-4.9-1.94-9.05-5-11.54a20.76,20.76,0,0,0,.28-3.42,19.81,19.81,0,0,0-.93-6.09V534a2.52,2.52,0,0,0-.73-1.75,2.35,2.35,0,0,0-1.76-.55l-1.94.18c-6.09.56-12.46.92-18.83,1.2a36,36,0,0,0-13.11-2.49,35.2,35.2,0,0,0-13.11,2.49c-6.47-.28-12.75-.64-18.93-1.2l-1.94-.18a2.35,2.35,0,0,0-1.76.55,2.52,2.52,0,0,0-.73,1.75v15.15a23,23,0,0,0-.93,6.09,14.74,14.74,0,0,0,.37,3.42c-3,2.49-4.89,6.64-5,11.54-.37,12.28,7.57,23.63,7.94,24.19a2.49,2.49,0,0,0,2.21.92,2.28,2.28,0,0,0,1.85-1.66,31.61,31.61,0,0,1,1.48-3.42,36.5,36.5,0,0,0,57,0,20.18,20.18,0,0,1,1.48,3.42,2.41,2.41,0,0,0,1.85,1.66,2.49,2.49,0,0,0,2.21-.92c.37-.56,8.31-11.91,8-24.19"/><path class="cls-27" d="M1228.91,593s-7.84-11.08-7.57-22.71,11.08-15.6,16-6.92c6.27,11.35-5.73,21-8.41,29.63"/><path class="cls-27" d="M1293.27,593s7.84-11.08,7.57-22.71-11.08-15.6-16-6.92c-6.28,11.35,5.81,21,8.4,29.63"/><path class="cls-28" d="M1293.17,567.27a32.08,32.08,0,1,1-32-32.13,32.07,32.07,0,0,1,32,32.13"/><path class="cls-27" d="M1261.14,598.11A30.84,30.84,0,1,1,1292,567.27,30.91,30.91,0,0,1,1261.14,598.11ZM1291.79,552h3.42V534l-1.94.19c-6.47.55-12.93.92-19.48,1.2a34,34,0,0,0-12.65-2.49,34.47,34.47,0,0,0-12.75,2.49c-6.55-.28-13-.65-19.48-1.2L1227,534V552h3.42a34.3,34.3,0,1,0,61.4,0Z"/><path class="cls-26" d="M1244.42,540.31a14.92,14.92,0,1,0,14.87,15,14.94,14.94,0,0,0-14.87-15"/><path class="cls-26" d="M1277.76,540.31a14.92,14.92,0,1,0,14.86,15,14.94,14.94,0,0,0-14.86-15"/><path class="cls-29" d="M1261.14,562.93a19.6,19.6,0,0,1-6.74,7.76l6.74,6.65,6.64-6.65a18.61,18.61,0,0,1-6.64-7.76"/><path class="cls-29" d="M1246.46,596.82a1.19,1.19,0,0,0-1.11-1.11h-.74a1.19,1.19,0,0,0-1.11,1.11v7.85a1.19,1.19,0,0,0,1.11,1.1h.74a1.19,1.19,0,0,0,1.11-1.1v-7.85"/><path class="cls-29" d="M1235.84,604.67a1.12,1.12,0,0,0,1.11,1.1h.64a1.12,1.12,0,0,0,1.11-1.1v-7.85a1.12,1.12,0,0,0-1.11-1.11H1237a1.12,1.12,0,0,0-1.11,1.11v7.85"/><path class="cls-29" d="M1241.47,595.71h-.74a1.19,1.19,0,0,0-1.11,1.11v7.85a1.19,1.19,0,0,0,1.11,1.1h.74a1.12,1.12,0,0,0,1.11-1.1v-7.85a1.12,1.12,0,0,0-1.11-1.11"/><path id="owl_left_eye" data-name="owl left eye" class="cls-30" d="M1244.15,557a2.47,2.47,0,0,1-2.41-2.49,2.45,2.45,0,0,1,4.9,0A2.48,2.48,0,0,1,1244.15,557Zm1.29-7.94a6.23,6.23,0,1,0,6.28,6.28A6.28,6.28,0,0,0,1245.44,549Z"/><path id="owl_right_eye" data-name="owl right eye" class="cls-30" d="M1278.75,557a2.45,2.45,0,1,1,0-4.89,2.44,2.44,0,0,1,2.4,2.4A2.47,2.47,0,0,1,1278.75,557Zm-1.29-7.94a6.23,6.23,0,1,0,6.28,6.28A6.28,6.28,0,0,0,1277.46,549Z"/><path class="cls-31" d="M1277.76,570.14a14.92,14.92,0,1,1,14.86-14.87A14.86,14.86,0,0,1,1277.76,570.14Zm-33.34,0a14.92,14.92,0,1,1,14.87-14.87A14.86,14.86,0,0,1,1244.42,570.14Zm33.34-33.24a18.15,18.15,0,0,0-16.62,10.71,18.37,18.37,0,1,0,0,15.32,18.34,18.34,0,1,0,16.62-26Z"/><path class="cls-26" d="M1246.46,604.67a1.19,1.19,0,0,1-1.11,1.1h-.74a1.19,1.19,0,0,1-1.11-1.1v-7.85a1.19,1.19,0,0,1,1.11-1.11h.74a1.19,1.19,0,0,1,1.11,1.11Zm-5,1.1h-.74a1.19,1.19,0,0,1-1.11-1.1v-7.85a1.19,1.19,0,0,1,1.11-1.11h.74a1.12,1.12,0,0,1,1.11,1.11v7.85A1.12,1.12,0,0,1,1241.47,605.77Zm-3.88,0H1237a1.12,1.12,0,0,1-1.11-1.1v-7.85a1.12,1.12,0,0,1,1.11-1.11h.64a1.12,1.12,0,0,1,1.11,1.11v7.85A1.12,1.12,0,0,1,1237.59,605.77Zm7.76-11h-.74a1.9,1.9,0,0,1-3.14,0h-.74a2.23,2.23,0,0,0-1.57.83,2.06,2.06,0,0,0-1.57-.83H1237a2.05,2.05,0,0,0-2,2v7.85a2.06,2.06,0,0,0,2,2h.64a2.06,2.06,0,0,0,1.57-.83,2.23,2.23,0,0,0,1.57.83h.74a1.9,1.9,0,0,1,3.14,0h.74a2.05,2.05,0,0,0,2-2v-7.85A2,2,0,0,0,1245.35,594.79Z"/><path class="cls-29" d="M1286.43,596.82a1.2,1.2,0,0,0-1.2-1.11h-.64a1.12,1.12,0,0,0-1.11,1.11v7.85a1.12,1.12,0,0,0,1.11,1.1h.64a1.2,1.2,0,0,0,1.2-1.1v-7.85"/><path class="cls-29" d="M1275.72,604.67a1.19,1.19,0,0,0,1.11,1.1h.74a1.12,1.12,0,0,0,1.11-1.1v-7.85a1.12,1.12,0,0,0-1.11-1.11h-.74a1.19,1.19,0,0,0-1.11,1.11v7.85"/><path class="cls-29" d="M1281.45,595.71h-.74a1.12,1.12,0,0,0-1.11,1.11v7.85a1.12,1.12,0,0,0,1.11,1.1h.74a1.19,1.19,0,0,0,1.11-1.1v-7.85a1.19,1.19,0,0,0-1.11-1.11"/><path class="cls-26" d="M1286.43,604.67a1.2,1.2,0,0,1-1.2,1.1h-.64a1.12,1.12,0,0,1-1.11-1.1v-7.85a1.12,1.12,0,0,1,1.11-1.11h.64a1.2,1.2,0,0,1,1.2,1.11Zm-5,1.1h-.74a1.12,1.12,0,0,1-1.11-1.1v-7.85a1.12,1.12,0,0,1,1.11-1.11h.74a1.19,1.19,0,0,1,1.11,1.11v7.85A1.19,1.19,0,0,1,1281.45,605.77Zm-3.88,0h-.74a1.19,1.19,0,0,1-1.11-1.1v-7.85a1.19,1.19,0,0,1,1.11-1.11h.74a1.12,1.12,0,0,1,1.11,1.11v7.85A1.12,1.12,0,0,1,1277.57,605.77Zm7.66-11h-.64a1.9,1.9,0,0,1-3.14,0h-.74a1.9,1.9,0,0,1-3.14,0h-.74a2,2,0,0,0-2,2v7.85a2.05,2.05,0,0,0,2,2h.74a1.9,1.9,0,0,1,3.14,0h.74a1.9,1.9,0,0,1,3.14,0h.64a2.08,2.08,0,0,0,2.13-2v-7.85A2.07,2.07,0,0,0,1285.23,594.79Z"/><path class="cls-32" d="M1143.7,575.05a20.38,20.38,0,0,0,4.87-13.15c0-7.33-1.79-11.2-4.73-16.31-1.82-3.17-4.49-9.76-2.17-15-5.26,4.19-6.69,16.3-7,24.6-.92-4-.77-10.3-2-14-3.18-10-6.77-14-3.92-18.68-3.19.19-6.38,5.81-6.38,10.66,0,4.67-1.27,12.3-4.29,16.48-.21-9-3.25-14.79-6.09-15,2.92,7.45-5.18,16.68-5.18,27.24a20.55,20.55,0,0,0,5,13.21c-3.29-.6-5.54-1.12-5.54-1.12-4.37-1-10.54-2.35-10.52-2.24,1.16,3.27,2.36,6.48,7.42,12.63.16.2.33.38.49.57h49.18a32,32,0,0,0,7.95-13.25l-11.29,2.21S1147.18,574.39,1143.7,575.05Z"/><polygon class="cls-32" points="1103.6 598.45 1153.1 598.45 1153.1 598.45 1153.1 589.47 1103.6 589.47 1103.6 598.45"/><path class="cls-32" d="M1128.35,614.88c8.28,0,15-5.53,15-12.35h-30C1113.37,609.35,1120.08,614.88,1128.35,614.88Z"/><line class="cls-33" x1="992" y1="675.2" x2="1408" y2="675.2"/><path class="cls-34" d="M1272.44,425.13H1275l7.3-7.3.36-3.1a32.81,32.81,0,0,0-53.39,16,3.94,3.94,0,0,1,2.56-.15l14.6-2.41s.74-1.23,1.13-1.15a18.21,18.21,0,0,1,24.93-1.9Z"/><path class="cls-35" d="M1292.7,430.74a32.91,32.91,0,0,0-9.91-16L1272.54,425a18.19,18.19,0,0,1,6.68,14.45v1.82a9.12,9.12,0,1,1,0,18.24H1261l-1.82,1.85V472.3l1.82,1.82h18.24a23.73,23.73,0,0,0,13.48-43.38Z"/><path class="cls-36" d="M1242.72,474H1261v-14.6h-18.24a9.07,9.07,0,0,1-3.77-.82l-2.56.79-7.35,7.31-.65,2.56A23.66,23.66,0,0,0,1242.72,474Z"/><path class="cls-37" d="M1242.72,426.64a23.72,23.72,0,0,0-14.33,42.53L1239,458.59A9.12,9.12,0,1,1,1251,446.52l10.58-10.58A23.69,23.69,0,0,0,1242.72,426.64Z"/><path class="cls-38" d="M1112,845.33a8.83,8.83,0,1,1-8.82-8.82H1112Z"/><path class="cls-38" d="M1116.45,845.33a8.83,8.83,0,0,1,17.65,0v22.1a8.83,8.83,0,0,1-17.65,0Z"/><path class="cls-39" d="M1125.27,809.9a8.83,8.83,0,1,1,8.83-8.82v8.82Z"/><path class="cls-39" d="M1125.27,814.35a8.82,8.82,0,1,1,0,17.64h-22.09a8.82,8.82,0,1,1,0-17.64Z"/><path class="cls-40" d="M1160.71,823.17a8.82,8.82,0,1,1,8.82,8.82h-8.82Z"/><path class="cls-40" d="M1156.26,823.17a8.83,8.83,0,0,1-17.65,0V801.08a8.83,8.83,0,1,1,17.65,0Z"/><path class="cls-41" d="M1147.44,858.6a8.83,8.83,0,1,1-8.83,8.83V858.6Z"/><path class="cls-41" d="M1147.44,854.16a8.83,8.83,0,1,1,0-17.65h22.09a8.83,8.83,0,0,1,0,17.65Z"/><path class="cls-42" d="M1241,789.25a5.64,5.64,0,0,0-5.62,5.63v78.75a5.64,5.64,0,0,0,5.62,5.62h56.25a5.65,5.65,0,0,0,5.63-5.62V811.75l-22.5-22.5Z"/><path class="cls-43" d="M1286,811.75h16.88l-22.5-22.5v16.88A5.64,5.64,0,0,0,1286,811.75Z"/><polygon class="cls-44" points="1302.89 828.63 1286.01 811.75 1302.89 811.75 1302.89 828.63"/><path class="cls-45" d="M1247.8,828.63h-1.87v-8.57H1250a2.74,2.74,0,0,1,1.06.2,2.14,2.14,0,0,1,.82.56,2.42,2.42,0,0,1,.52.86,3.1,3.1,0,0,1,.19,1.12,2.89,2.89,0,0,1-.39,1.52,2.21,2.21,0,0,1-1.17.94l1.68,3.37h-2.07l-1.5-3.14h-1.34Zm2-4.72a1,1,0,0,0,.66-.21.79.79,0,0,0,.24-.63v-.54a.79.79,0,0,0-.24-.63.92.92,0,0,0-.66-.22h-2v2.23Z"/><path class="cls-45" d="M1254.21,828.63v-8.57H1260v1.66h-4v1.74h3.4v1.66h-3.4V827h4v1.66Z"/><path class="cls-45" d="M1261.66,828.63v-8.57h4a2.85,2.85,0,0,1,1.08.2,2.45,2.45,0,0,1,.81.56,2.38,2.38,0,0,1,.52.87,3.08,3.08,0,0,1,.19,1.11,3,3,0,0,1-.19,1.11,2.26,2.26,0,0,1-.52.86,2.31,2.31,0,0,1-.81.56,2.67,2.67,0,0,1-1.08.2h-2.19v3.1Zm1.86-4.72h2a1,1,0,0,0,.66-.21.79.79,0,0,0,.24-.63v-.54a.79.79,0,0,0-.24-.63.92.92,0,0,0-.66-.22h-2Z"/><path class="cls-45" d="M1273.14,828.77a4,4,0,0,1-1.54-.28,3.07,3.07,0,0,1-1.19-.84,3.79,3.79,0,0,1-.76-1.39,6.18,6.18,0,0,1-.27-1.92,6.27,6.27,0,0,1,.27-1.92,3.83,3.83,0,0,1,.76-1.38,2.88,2.88,0,0,1,1.19-.84,4,4,0,0,1,1.54-.29,4.08,4.08,0,0,1,1.55.29,2.94,2.94,0,0,1,1.19.84,3.83,3.83,0,0,1,.76,1.38,6.27,6.27,0,0,1,.27,1.92,6.18,6.18,0,0,1-.27,1.92,3.79,3.79,0,0,1-.76,1.39,3.15,3.15,0,0,1-1.19.84A4.07,4.07,0,0,1,1273.14,828.77Zm0-1.65a1.65,1.65,0,0,0,1.32-.55,2.36,2.36,0,0,0,.47-1.59v-1.27a2.36,2.36,0,0,0-.47-1.59,1.62,1.62,0,0,0-1.32-.55,1.65,1.65,0,0,0-1.32.55,2.41,2.41,0,0,0-.47,1.59V825a2.41,2.41,0,0,0,.47,1.59A1.68,1.68,0,0,0,1273.14,827.12Z"/><path class="cls-45" d="M1280.33,828.63h-1.86v-8.57h4.06a2.83,2.83,0,0,1,1.07.2,2.22,2.22,0,0,1,.82.56,2.75,2.75,0,0,1,.52.86,3.33,3.33,0,0,1,.18,1.12,2.89,2.89,0,0,1-.39,1.52,2.14,2.14,0,0,1-1.17.94l1.68,3.37h-2.07l-1.5-3.14h-1.34Zm2-4.72a1,1,0,0,0,.66-.21.82.82,0,0,0,.23-.63v-.54a.82.82,0,0,0-.23-.63.92.92,0,0,0-.66-.22h-2v2.23Z"/><path class="cls-45" d="M1290,821.72v6.91h-1.87v-6.91h-2.32v-1.66h6.51v1.66Z"/><rect class="cls-43" x="1245.93" y="837.13" width="46.4" height="2.38"/><rect class="cls-43" x="1245.93" y="844.27" width="46.4" height="2.38"/><rect class="cls-43" x="1245.93" y="851.41" width="46.4" height="2.38"/><rect class="cls-43" x="1245.93" y="858.55" width="26.18" height="2.38"/></svg>