<svg id="Calque_1" data-name="Calque 1" xmlns="http://www.w3.org/2000/svg" viewBox="0 0 533.97 104.86"><defs><style>.cls-1{fill:#363f45;}.cls-2{fill:#feb41c;}.cls-3{fill:#5e7c88;}.cls-4{fill:#4b5f6d;}.cls-5{fill:#24221f;}</style></defs><title>chaos-toolkit</title><path class="cls-1" d="M170.25,78q-9,0-14.08-6.16t-5-18.12q0-12,5-18.39t14.08-6.43a17.78,17.78,0,0,1,10,2.69,17.69,17.69,0,0,1,6.29,7.65L181.94,42a13.2,13.2,0,0,0-4.35-5.89,11.86,11.86,0,0,0-7.34-2.21,12.56,12.56,0,0,0-5.48,1.16,11.38,11.38,0,0,0-4.08,3.31,15.56,15.56,0,0,0-2.55,5.12,23.28,23.28,0,0,0-.88,6.65v7.1q0,7.38,3.4,11.53T170.25,73a12.17,12.17,0,0,0,7.61-2.35,13.52,13.52,0,0,0,4.49-6.22l4.56,2.85a18.24,18.24,0,0,1-6.46,7.89A17.75,17.75,0,0,1,170.25,78Z"/><path class="cls-1" d="M195.2,26.86h5.44V47.74h.27A11.51,11.51,0,0,1,204.55,43a10.25,10.25,0,0,1,6.29-1.75,11,11,0,0,1,8.6,3.5q3.17,3.51,3.16,9.89V77.18h-5.44V55.58q0-9.48-7.95-9.47a11.86,11.86,0,0,0-3.16.41,9.32,9.32,0,0,0-2.76,1.22,6.22,6.22,0,0,0-1.94,2.08,6,6,0,0,0-.71,3V77.18H195.2Z"/><path class="cls-1" d="M259.32,77.18q-3.06,0-4.38-1.63a8.08,8.08,0,0,1-1.67-4.08h-.34a9.07,9.07,0,0,1-3.81,4.9A11.77,11.77,0,0,1,242.8,78q-5.58,0-8.67-2.86A10,10,0,0,1,231,67.39a8.87,8.87,0,0,1,3.63-7.62q3.65-2.64,11.33-2.65h6.93V53.65a7.59,7.59,0,0,0-2-5.71q-2-2-6.25-2a9.45,9.45,0,0,0-5.34,1.43,11.68,11.68,0,0,0-3.57,3.81l-3.27-3.06A12.43,12.43,0,0,1,237,43.28a14.39,14.39,0,0,1,7.89-2q6.39,0,9.93,3.12a11,11,0,0,1,3.53,8.68V72.35h4v4.83Zm-15.64-3.81a13.73,13.73,0,0,0,3.74-.47,9.22,9.22,0,0,0,2.93-1.36,6.78,6.78,0,0,0,1.9-2,4.91,4.91,0,0,0,.68-2.52V61.2h-7.21c-3.12,0-5.4.46-6.83,1.36a4.39,4.39,0,0,0-2.14,4v1.42a4.76,4.76,0,0,0,1.87,4A8.13,8.13,0,0,0,243.68,73.37Z"/><path class="cls-1" d="M283.4,78a15.82,15.82,0,0,1-6.46-1.29,13.89,13.89,0,0,1-5-3.71,17.54,17.54,0,0,1-3.23-5.78,25.25,25.25,0,0,1,0-15.13,17.39,17.39,0,0,1,3.23-5.81,13.89,13.89,0,0,1,5-3.71,15.82,15.82,0,0,1,6.46-1.29,15.6,15.6,0,0,1,6.42,1.29,14.34,14.34,0,0,1,5,3.71,17.11,17.11,0,0,1,3.26,5.81,25.25,25.25,0,0,1,0,15.13A17.25,17.25,0,0,1,294.82,73a14.34,14.34,0,0,1-5,3.71A15.6,15.6,0,0,1,283.4,78Zm0-4.83a9.88,9.88,0,0,0,7.2-2.72q2.79-2.72,2.79-8.3v-5c0-3.71-.93-6.48-2.79-8.29a10.9,10.9,0,0,0-14.41,0c-1.86,1.81-2.79,4.58-2.79,8.29v5q0,5.58,2.79,8.3A9.9,9.9,0,0,0,283.4,73.17Z"/><path class="cls-1" d="M318.76,78a16.49,16.49,0,0,1-8.2-1.87,18.66,18.66,0,0,1-5.68-5L308.76,68a15.15,15.15,0,0,0,4.56,4,11.81,11.81,0,0,0,5.84,1.39,8.64,8.64,0,0,0,5.41-1.49,5.43,5.43,0,0,0,.61-7.72q-1.32-1.45-4.79-2l-2.79-.4a23.27,23.27,0,0,1-4.49-1.06,12.4,12.4,0,0,1-3.57-1.9,8.19,8.19,0,0,1-2.38-3,9.74,9.74,0,0,1-.85-4.22,10.2,10.2,0,0,1,.95-4.52,9.19,9.19,0,0,1,2.62-3.23,11.64,11.64,0,0,1,4-1.94,18.41,18.41,0,0,1,5-.64A15.61,15.61,0,0,1,326,42.77a16.14,16.14,0,0,1,5.06,4.15l-3.6,3.27a10.69,10.69,0,0,0-3.4-3,10.9,10.9,0,0,0-5.64-1.33,7.84,7.84,0,0,0-5.14,1.46,5,5,0,0,0-1.73,4,4.17,4.17,0,0,0,1.73,3.74,12.93,12.93,0,0,0,5,1.7l2.72.41c3.9.59,6.66,1.71,8.3,3.37a8.84,8.84,0,0,1,2.44,6.49,9.92,9.92,0,0,1-3.46,8Q324.8,78,318.76,78Z"/><path class="cls-2" d="M353.44,34.75V77.18h-5.72V34.75H332.63v-5h35.9v5Z"/><path class="cls-2" d="M384.65,78a15.82,15.82,0,0,1-6.46-1.29,13.89,13.89,0,0,1-5-3.71A17.54,17.54,0,0,1,370,67.22a23.25,23.25,0,0,1-1.15-7.58A23.37,23.37,0,0,1,370,52.09a17.39,17.39,0,0,1,3.23-5.81,13.89,13.89,0,0,1,5-3.71,15.82,15.82,0,0,1,6.46-1.29,15.61,15.61,0,0,1,6.43,1.29,14.3,14.3,0,0,1,5,3.71,17,17,0,0,1,3.27,5.81,23.37,23.37,0,0,1,1.15,7.55,23.25,23.25,0,0,1-1.15,7.58A17.1,17.1,0,0,1,396.07,73a14.3,14.3,0,0,1-5,3.71A15.61,15.61,0,0,1,384.65,78Zm0-4.83a9.9,9.9,0,0,0,7.21-2.72q2.79-2.72,2.79-8.3v-5c0-3.71-.93-6.48-2.79-8.29a10.92,10.92,0,0,0-14.42,0c-1.86,1.81-2.79,4.58-2.79,8.29v5q0,5.58,2.79,8.3A9.9,9.9,0,0,0,384.65,73.17Z"/><path class="cls-2" d="M422.73,78a15.82,15.82,0,0,1-6.46-1.29,13.89,13.89,0,0,1-5-3.71A17.54,17.54,0,0,1,408,67.22a23.25,23.25,0,0,1-1.15-7.58A23.37,23.37,0,0,1,408,52.09a17.39,17.39,0,0,1,3.23-5.81,13.89,13.89,0,0,1,5-3.71,15.82,15.82,0,0,1,6.46-1.29,15.53,15.53,0,0,1,6.42,1.29,14.25,14.25,0,0,1,5,3.71,17,17,0,0,1,3.27,5.81,23.37,23.37,0,0,1,1.15,7.55,23.25,23.25,0,0,1-1.15,7.58A17.1,17.1,0,0,1,434.15,73a14.25,14.25,0,0,1-5,3.71A15.53,15.53,0,0,1,422.73,78Zm0-4.83a9.9,9.9,0,0,0,7.21-2.72c1.86-1.81,2.78-4.58,2.78-8.3v-5c0-3.71-.92-6.48-2.78-8.29a10.92,10.92,0,0,0-14.42,0c-1.86,1.81-2.79,4.58-2.79,8.29v5q0,5.58,2.79,8.3A9.9,9.9,0,0,0,422.73,73.17Z"/><path class="cls-2" d="M453.33,77.18a5.56,5.56,0,0,1-4.32-1.6,5.76,5.76,0,0,1-1.46-4V26.86H453V72.35h5.17v4.83Z"/><path class="cls-2" d="M466,26.86h5.44V58.75h.28l5.37-6,9.93-10.68h6.59L480.66,56l14.28,21.21h-6.59L476.72,59.3l-5.24,5.37V77.18H466Z"/><path class="cls-2" d="M504.6,33.87a3.35,3.35,0,0,1-2.55-.85,3.16,3.16,0,0,1-.78-2.21v-.89a3.16,3.16,0,0,1,.78-2.21,4.25,4.25,0,0,1,5.1,0,3.16,3.16,0,0,1,.78,2.21v.89a3.16,3.16,0,0,1-.78,2.21A3.35,3.35,0,0,1,504.6,33.87Zm-2.72,8.22h5.44V77.18h-5.44Z"/><path class="cls-2" d="M526.63,77.18a5.6,5.6,0,0,1-4.32-1.59,6,6,0,0,1-1.46-4.17V46.92h-5.78V42.09h3.27a3.18,3.18,0,0,0,2.41-.71,3.71,3.71,0,0,0,.64-2.48V32.37h4.9v9.72H534v4.83h-7.68V72.35h7.14v4.83Z"/><path class="cls-2" d="M111.37,13.83a77.76,77.76,0,0,1,18.51,75.55L55.2,67.65Z"/><path class="cls-3" d="M74.1,2.71A67.23,67.23,0,0,1,104,20.85L55.2,67.65,39.09,2A67.35,67.35,0,0,1,74.1,2.71Z"/><path class="cls-4" d="M41.51,11.81,55.2,67.65,0,51.59A57.44,57.44,0,0,1,41.51,11.81Z"/><path class="cls-1" d="M9.74,54.43,55.2,67.65,21,100.41A47.3,47.3,0,0,1,9.74,54.43Z"/><path class="cls-5" d="M55.2,67.65l8.86,36.14a37.24,37.24,0,0,1-35.72-10.4Z"/></svg>